# xmcd CD database file
#
# Track frame offsets:
#	187
#	13955
#	30320
#	41745
#	52555
#	65807
#	78902
#	89292
#
# Disc length: 1405 seconds
#
# Revision: 3
# Processed by: cddbd v1.5.2PL0 Copyright (c) Steve Scherf et al.
# Submitted via: CDex 1.50
#
DISCID=59057b08
DTITLE=Waylon Jennings - Collector's Series
DYEAR=1992
DGENRE=Country
TTITLE0=Good Hearted Woman
TTITLE1=Lonesome, On'ry And Mean
TTITLE2=Rainy Day Woman
TTITLE3=Dreaming My Dream With You
TTITLE4=Amanda
TTITLE5=Are You Sure Hank Done It This Way
TTITLE6=Just To Satisfy You
TTITLE7=Bob Wills Is Still King
EXTD=YEAR: 1992
EXTT0=
EXTT1=
EXTT2=
EXTT3=
EXTT4=
EXTT5=
EXTT6=
EXTT7=
PLAYORDER=
